REM MD5 4ec5cd89294bd3dd95170e58489dedb3
FILE "Aironauts (Europe) (En,Fr,De).bin" BINARY
  TRACK 01 MODE2/2352
    INDEX 01 00:00:00
  TRACK 02 AUDIO
    INDEX 00 57:26:58
    INDEX 01 57:28:58
  TRACK 03 AUDIO
    INDEX 00 61:08:58
    INDEX 01 61:10:58
  TRACK 04 AUDIO
    INDEX 00 63:21:57
    INDEX 01 63:23:57
REM LEADOUT 66:32:07
